<?xml version="1.0" encoding="UTF-8" standalone="no"?>
<svg width="1520px" height="2289px" viewBox="0 0 1520 2289" version="1.1" xmlns="http://www.w3.org/2000/svg" xmlns:xlink="http://www.w3.org/1999/xlink">
    <!-- Generator: Sketch 39.1 (31720) - http://www.bohemiancoding.com/sketch -->
    <title>Group</title>
    <desc>Created with Sketch.</desc>
    <defs></defs>
    <g id="Page-1" stroke="none" stroke-width="1" fill="none" fill-rule="evenodd">
        <g id="Group" transform="translate(24.000000, 22.000000)" stroke-width="45" stroke="#FFFFFF">
            <polyline id="Path" points="102.277519 830.461402 170.202911 759.687885 276.426832 674.928324 382.475728 619.58878 450.719346 593.000977"></polyline>
            <polyline id="Path-2" points="454.792642 659.319327 641.718739 602.388652 865.909129 569.38859 1017.54393 560.876038 1121.11067 590.662014 1158.69319 633.908961"></polyline>
            <polyline id="Path-3" points="470.178881 789.807999 589.545546 733.609244 822.232576 672.780297 998.864054 643.169345 1150.1329 640.146196 1267.7175 655.755193 1359.5735 695.103868 1431.93815 751.684495 1472.89387 823.858207 1472.89387 881.48898 1412.43088 851.512068 1294.1621 811.781521 1151.59674 778.590524 993.915636 745.956422 909.522036 745.956422 766.574806 768.295905 616.547043 793.658536 533.569549 822.028406 504.499582 845.418035 500.251261 877.861201"></polyline>
            <path d="M207.276269,806.928571 C207.276269,806.928571 118.998393,930.4322 146.638258,1140.73199" id="Path-4"></path>
            <polyline id="Path-5" points="64.4881524 755.519121 49.0700908 645.396929 0.826992002 524.980117 37.9003496 433.999234 138.268907 350.464845 280.16599 239.976692 432.675918 149.902753 555.924943 94.5632093 741.434933 27.8788996 907.071693 0.925136624 1034.77589 0.925136624 1092.58168 9.0717285 1142.24089 61.0062517 1184.62862 119.002985 1205.90205 191.001673 1228.60749 255.71298 1256.97736 347.568986 1281.09891 434.126524 1277.02562 528.830655 1268.704 622.102768 1268.704 662.883461"></polyline>
            <polyline id="Path-6" points="498.023678 155.933141 450.146539 205.03545 399.612211 282.714477 375.681598 343.543424 316.634718 473.888894 291.463022 563.421848 274.262893 648.372344 274.262893 691.619291 306.165074 758.812763"></polyline>
            <polyline id="Path-7" points="967.486946 103.521278 1028.14087 109.201617 1078.85022 124.444654 1109.70226 160.961115 1135.60587 229.745718 1146.95064 322.842806 1163.43476 428.716678 1163.43476 523.229873"></polyline>
            <polyline id="Path-8" points="208.644642 1073.69763 174.785369 1018.54902 115.547553 1010.03647 62.9129325 1021.20621 29.2286844 1059.32972 7.9552599 1115.52847 7.9552599 1187.52716 34.7180871 1237.87055 96.7881163 1254.72063 164.347548 1254.72063 226.401666 1237.69553 307.788028 1219.42934"></polyline>
            <polyline id="Path-9" points="134.863887 1294.99216 118.395678 1355.64609 105.984855 1444.30392 105.984855 1482.42742 115.913514 1520.55093 157.935289 1521.79201 182.91605 1517.52778 178.667729 1558.30847 163.249668 1610.44984 158.985436 1655.30383 211.620057 1679.04351 227.229054 1716.81696 220.323545 1771.77464 220.323545 1804.23371 239.448942 1832.0626 274.374272 1854.21114 327.915838 1854.21114 381.28238 1830.26462 423.670116 1841.6253 429.525478 1905.97064 422.619969 1956.87093 426.868289 1994.99444 471.547254 2007.58028"></polyline>
            <polyline id="Path-10" points="335.887406 1979.01948 340.135726 2012.70373 369.746678 2033.99306 433.42375 2050.82723 468.699129 2061.82195 495.668804 2100.12048 504.181356 2149.42963 539.647671 2162.1905 605.96602 2176.3834 682.5949 2194.64958 703.502364 2229.74994 741.625869 2242.33578 799.622602 2221.41241"></polyline>
            <polyline id="Path-11" points="883.156991 2197.11583 927.326794 2164.65676 977.84521 2110.74923 1031.03673 2086.62768 1112.04122 2067.31135"></polyline>
            <polyline id="Path-12" points="1151.59674 2029.91977 1169.67199 2059.16476 1209.03658 2059.16476 1230.13498 2013.94481 1255.67263 1928.81929 1259.92095 1870.99758 1259.92095 1807.16139 1287.38388 1745.64826 1308.48228 1655.38339 1311.3304 1590.30612 1360.43271 1554.82389 1396.96509 1497.57499 1412.19221 1434.45482 1403.67966 1376.64902 1365.1902 1310.33067 1329.03969 1211.18728 1313.60572 1112.23483 1297.99672 1000.69653 1274.25705 884.353016 1270.18375 825.306136"></polyline>
            <polyline id="Path-13" points="414.282441 1042.03412 442.286351 1061.7005 480.919017 1081.01684 528.796156 1085.28107 569.751873 1085.28107 614.239903 1072.69522 662.992163 1057.26125"></polyline>
            <polyline id="Path-14" points="1027.63171 1153.74744 1065.94615 1163.50108 1140.96798 1159.42778 1205.67929 1134.62205"></polyline>
            <polyline id="Path-15" points="718.999982 1418.76626 747.194828 1458.13085 795.071966 1497.47952 852.877764 1500.32765 918.830153 1461.50405 958.19474 1396.79274 982.141265 1308.81909 977.702009 1214.3059 981.950329 1180.98761"></polyline>
            <polyline id="Path-16" points="192.924265 1087.7155 197.188497 1148.54445 204.269031 1190.91627 214.022665 1224.60052 243.267657 1244.28281 301.26439 1268.22934 346.293404 1298.01531 367.391804 1344.47634 374.313225 1379.5767 374.313225 1433.3092 378.386521 1467.00936 417.560172 1462.74513 436.876505 1491.99012 484.753643 1491.99012 509.925339 1465.21138 495.732449 1521.79201 540.777374 1498.03642 584.390281 1478.35413 632.267419 1481.18634 661.878371 1528.88845 696.978726 1544.49745 777.680902 1540.23322 840.976102 1524.99018 911.908732 1512.40433 977.176935 1502.47568"></polyline>
            <polyline id="Path-17" points="584.151611 1718.82179 584.151611 1762.45061 594.096181 1788.86338 649.785774 1807.47962 717.345206 1817.40828 804.952891 1848.45125 870.221094 1856.9638 909.585681 1840.47968"></polyline>
            <polyline id="Path-18" points="803.536785 1811.05967 817.538739 1760.52534 857.953473 1743.67526 937.732792 1757.86815 985.228059 1769.22883 1061.666 1759.28426 1115.39851 1710.18195"></polyline>
            <polyline id="Path-19" points="1048.18912 1515.37975 1069.28752 1477.25625 1101.55566 1436.30053 1153.31516 1419.45045 1204.89964 1411.12883 1238.94984 1364.47686 1262.70543 1322.471 1306.50928 1277.42607 1350.80637 1249.96315"></polyline>
            <polyline id="Path-20" points="643.023466 1660.42727 705.459456 1640.74498 754.752701 1640.74498 832.415816 1640.74498 919.848477 1657.77008 942.728944 1677.6274"></polyline>
            <polyline id="Path-21" points="804.921069 1623.8949 860.069677 1602.62147 923.364877 1595.70005 988.092096 1595.70005 1031.51407 1609.71792 1091.97705 1613.96624"></polyline>
        </g>
    </g>
</svg>